<svg width="339" height="339" viewBox="0 0 339 339" fill="none" xmlns="http://www.w3.org/2000/svg">
<path d="M71.9528 83.5211L252.993 38.8438L289.103 220.809L108.063 265.486L71.9528 83.5211Z" stroke="#1E1E1E" stroke-width="3" stroke-linecap="round" stroke-linejoin="round"/>
<path d="M49.8965 118.191L230.937 73.5135L267.047 255.479L86.0071 300.156L49.8965 118.191Z" stroke="#1E1E1E" stroke-width="3" stroke-linecap="round" stroke-linejoin="round"/>
<path d="M152.515 204.459C164.231 217.476 188.618 194.431 190.921 168.222C169.719 170.446 134.209 183.498 152.515 204.452" stroke="#1E1E1E" stroke-width="3" stroke-linecap="round" stroke-linejoin="round"/>
<path d="M196.733 138.326C202.439 114.568 167.007 110.281 158.115 133.305L99.214 131.596C123.848 69.2478 258.629 50.1862 259.25 111.778C258.028 138.489 242.901 204.332 243.324 218.224L243.974 241.905L184.974 240.634L185.715 220.477C154.944 257.365 84.2344 249.603 82.3346 209.594C79.8769 158.468 131.864 140.579 196.733 138.326Z" stroke="#1E1E1E" stroke-width="3" stroke-linecap="round" stroke-linejoin="round"/>
</svg>
