<svg width="32" height="32" viewBox="0 0 32 32" fill="none" xmlns="http://www.w3.org/2000/svg">
<path d="M6.79199 7.88402L23.8813 3.66669L27.29 20.8434L10.2007 25.0607L6.79199 7.88402Z" stroke="#1E1E1E" stroke-linecap="round" stroke-linejoin="round"/>
<path d="M4.71002 11.1567L21.7994 6.93933L25.208 24.116L8.11869 28.3333L4.71002 11.1567Z" stroke="#1E1E1E" stroke-linecap="round" stroke-linejoin="round"/>
<path d="M14.3967 19.3C15.5027 20.5287 17.8047 18.3533 18.022 15.8793C16.0207 16.0893 12.6687 17.3213 14.3967 19.2993" stroke="#1E1E1E" stroke-linecap="round" stroke-linejoin="round"/>
<path d="M18.5707 13.0573C19.1093 10.8146 15.7647 10.41 14.9253 12.5833L9.36533 12.422C11.6907 6.53664 24.4133 4.73731 24.472 10.5513C24.3567 13.0726 22.9287 19.288 22.9687 20.5993L23.03 22.8346L17.4607 22.7146L17.5307 20.812C14.626 24.294 7.95133 23.5613 7.772 19.7846C7.54 14.9586 12.4473 13.27 18.5707 13.0573Z" stroke="#1E1E1E" stroke-linecap="round" stroke-linejoin="round"/>
</svg>
